<svg width="106" height="38" viewBox="0 0 106 38" fill="none" xmlns="http://www.w3.org/2000/svg">
<path d="M2.2248 29.055C2.89223 29.9895 3.73423 30.8776 4.75019 31.718C5.76638 32.5584 6.79324 33.2831 7.83195 33.8918C8.87051 34.5009 10.0572 35.1021 11.3922 35.6967L11.3698 35.6749L11.4589 35.6967C10.4649 33.8414 9.96814 32.2183 9.96814 30.8268C9.96814 30.0875 10.15 29.388 10.5137 28.729C10.8769 28.0692 11.3514 27.4782 11.9374 26.9569C12.5236 26.4352 13.1725 25.9135 13.8843 25.3918C14.5961 24.8696 15.308 24.308 16.0206 23.7068C16.7325 23.1054 17.3816 22.4674 17.9675 21.7935C18.5535 21.1195 19.0279 20.3042 19.3917 19.3476C19.7549 18.391 19.9368 17.3473 19.9368 16.217C19.9368 14.7966 19.7326 13.4632 19.325 12.2167C18.917 10.9703 18.3792 9.87943 17.7119 8.94471C17.0447 8.00998 16.203 7.12209 15.1862 6.28179C14.1701 5.44112 13.1433 4.71641 12.1048 4.10783C11.0662 3.4991 9.87961 2.89761 8.54474 2.30334L8.56688 2.32528L8.50016 2.30334C9.47902 4.18733 9.96837 5.81082 9.96837 7.17304C9.96837 7.91221 9.78671 8.61163 9.42322 9.27092C9.05966 9.93037 8.58511 10.5209 7.99928 11.0428C7.41321 11.5645 6.76433 12.0863 6.05232 12.6082C5.34007 13.1299 4.62799 13.6916 3.91605 14.2931C3.20404 14.8945 2.55516 15.5323 1.96909 16.2061C1.38326 16.8801 0.908716 17.6954 0.545152 18.652C0.181899 19.6086 0 20.6523 0 21.7826C0 23.203 0.203487 24.5365 0.611474 25.7829C1.01954 27.0293 1.55737 28.1205 2.2248 29.055Z" fill="#FFF000"/>
<path d="M35.7723 24.9292C35.4503 24.9292 35.1211 24.9655 34.7845 25.0381V28.088H35.443C37.1259 28.088 37.9674 27.5433 37.9674 26.4541C37.9674 25.4375 37.2357 24.9292 35.7723 24.9292ZM42.3576 33.2073C42.3576 34.8484 41.8161 36.0611 40.7332 36.8454C39.6649 37.6151 37.9381 37.9999 35.5528 37.9999C33.7674 37.9999 32.0845 37.891 30.504 37.6732V21.9883C32.0113 21.7704 33.6211 21.6615 35.3332 21.6615C39.7234 21.6615 41.9185 23.0412 41.9185 25.8006C41.9185 26.73 41.6185 27.5216 41.0185 28.1751C40.4186 28.8141 39.621 29.2135 38.6259 29.3732V29.4168C39.7527 29.562 40.6527 29.9905 41.3259 30.7021C42.0137 31.4137 42.3576 32.2488 42.3576 33.2073ZM38.2966 32.7716C38.2966 31.6824 37.4918 31.1378 35.882 31.1378H34.7845V34.6233C35.1211 34.696 35.4503 34.7323 35.7723 34.7323C36.6503 34.7323 37.2869 34.5725 37.682 34.253C38.0918 33.9335 38.2966 33.4397 38.2966 32.7716Z" fill="black"/>
<path d="M51.459 36.2572C51.0492 36.7945 50.537 37.223 49.9224 37.5425C49.3224 37.8475 48.7078 37.9999 48.0785 37.9999C46.7029 37.9999 45.7151 37.6441 45.1152 36.9325C44.5298 36.2209 44.2371 34.9792 44.2371 33.2073V26.4541H48.3639V32.7716C48.3639 33.614 48.4444 34.1731 48.6054 34.4491C48.7663 34.7105 49.0663 34.8412 49.5053 34.8412C49.959 34.8412 50.3614 34.5943 50.7127 34.1005C51.0785 33.6067 51.2614 33.0185 51.2614 32.336V26.4541H55.4321V37.7821H51.5907L51.5029 36.2572H51.459Z" fill="black"/>
<path d="M67.4143 26.2363V29.504C65.7753 29.504 64.5387 29.8089 63.7045 30.4189C62.8704 31.0289 62.4533 31.8857 62.4533 32.9895V37.7821H58.1948V26.4541H62.1241L62.146 28.6326H62.1899C63.4484 27.035 65.1899 26.2363 67.4143 26.2363Z" fill="black"/>
<path d="M73.7223 27.979C74.132 27.4417 74.6369 27.0205 75.2369 26.7155C75.8515 26.396 76.4734 26.2363 77.1027 26.2363C78.5515 26.2363 79.5905 26.6429 80.2197 27.4562C80.849 28.255 81.1636 29.6637 81.1636 31.6824V37.7821H77.0369V32.1181C77.0369 31.0289 76.9344 30.3027 76.7295 29.9396C76.5393 29.5766 76.1881 29.395 75.6759 29.395C75.2222 29.395 74.8125 29.6419 74.4466 30.1357C74.0954 30.6295 73.9198 31.2177 73.9198 31.9003V37.7821H69.7491V26.4541H73.5905L73.6784 27.979H73.7223Z" fill="black"/>
<path d="M87.1261 31.0289H90.8358C90.8358 29.6492 90.2138 28.9593 88.97 28.9593C87.8431 28.9593 87.2285 29.6492 87.1261 31.0289ZM87.17 33.4252C87.4188 34.587 88.2529 35.168 89.6724 35.168C90.7699 35.168 91.8163 34.9138 92.8114 34.4055L93.6894 37.1286C92.3431 37.7095 90.8797 37.9999 89.2992 37.9999C87.4114 37.9999 85.8968 37.4699 84.7554 36.4097C83.6139 35.3495 83.0432 33.919 83.0432 32.1181C83.0432 30.3027 83.5627 28.8722 84.6017 27.8265C85.6554 26.7664 87.0749 26.2363 88.8602 26.2363C90.6894 26.2363 92.1163 26.7518 93.1406 27.783C94.165 28.7996 94.6772 30.2446 94.6772 32.1181C94.6772 32.5102 94.6406 32.9459 94.5675 33.4252H87.17Z" fill="black"/>
<path d="M106 26.2363V29.504C104.361 29.504 103.124 29.8089 102.29 30.4189C101.456 31.0289 101.039 31.8857 101.039 32.9895V37.7821H96.7806V26.4541H100.71L100.732 28.6326H100.776C102.034 27.035 103.776 26.2363 106 26.2363Z" fill="black"/>
<path d="M41.699 4.68369C40.221 3.95754 38.721 3.59446 37.1991 3.59446C36.5113 3.59446 35.9918 3.71791 35.6406 3.9648C35.2893 4.19717 35.1137 4.50941 35.1137 4.90154C35.1137 5.5115 35.5893 5.9472 36.5405 6.20861C38.8381 6.81858 40.4551 7.55199 41.3917 8.40886C42.3283 9.25119 42.7966 10.3332 42.7966 11.6548C42.7966 13.2523 42.2405 14.4722 41.1283 15.3146C40.0161 16.1424 38.3405 16.5563 36.1015 16.5563C35.165 16.5563 34.1552 16.4038 33.0723 16.0988C32.004 15.7793 31.1479 15.3872 30.504 14.9225L31.4918 11.5458C32.2382 12.0541 33.043 12.4535 33.9064 12.744C34.7845 13.0345 35.5893 13.1797 36.321 13.1797C37.6381 13.1797 38.2966 12.7077 38.2966 11.7637C38.2966 11.1537 37.7113 10.6817 36.5405 10.3477C34.404 9.73772 32.8821 9.0043 31.9747 8.14744C31.0674 7.29058 30.6138 6.20861 30.6138 4.90154C30.6138 3.46375 31.1626 2.32369 32.2601 1.48135C33.3723 0.639016 34.9454 0.217846 36.9796 0.217846C39.1454 0.217846 40.9746 0.580923 42.4673 1.30708L41.699 4.68369Z" fill="black"/>
<path d="M46.0508 6.3611C47.1045 5.31544 48.5898 4.79261 50.5069 4.79261C52.4239 4.79261 53.9093 5.31544 54.9629 6.3611C56.0166 7.40676 56.5434 8.84455 56.5434 10.6745C56.5434 12.5044 56.0166 13.9421 54.9629 14.9878C53.9093 16.0335 52.4239 16.5563 50.5069 16.5563C48.5898 16.5563 47.1045 16.0335 46.0508 14.9878C44.9972 13.9421 44.4703 12.5044 44.4703 10.6745C44.4703 8.84455 44.9972 7.40676 46.0508 6.3611ZM49.0361 12.9183C49.3581 13.3685 49.8483 13.5936 50.5069 13.5936C51.1654 13.5936 51.6556 13.3685 51.9776 12.9183C52.2995 12.4681 52.4605 11.7201 52.4605 10.6745C52.4605 9.62879 52.2995 8.88086 51.9776 8.43064C51.6556 7.98043 51.1654 7.75532 50.5069 7.75532C49.8483 7.75532 49.3581 7.98043 49.0361 8.43064C48.7142 8.88086 48.5532 9.62879 48.5532 10.6745C48.5532 11.7201 48.7142 12.4681 49.0361 12.9183Z" fill="black"/>
<path d="M65.6628 14.8135C65.2531 15.3509 64.7409 15.7793 64.1262 16.0988C63.5263 16.4038 62.9116 16.5563 62.2824 16.5563C60.9068 16.5563 59.919 16.2005 59.319 15.4889C58.7336 14.7772 58.4409 13.5355 58.4409 11.7637V5.01046H62.5677V11.328C62.5677 12.1703 62.6482 12.7295 62.8092 13.0054C62.9702 13.2668 63.2702 13.3975 63.7092 13.3975C64.1628 13.3975 64.5653 13.1506 64.9165 12.6569C65.2823 12.1631 65.4653 11.5749 65.4653 10.8923V5.01046H69.6359V16.3384H65.7945L65.7067 14.8135H65.6628Z" fill="black"/>
<path d="M76.3718 6.53538C76.7816 5.99803 77.2864 5.57686 77.8864 5.27187C78.5011 4.95237 79.123 4.79261 79.7523 4.79261C81.201 4.79261 82.24 5.19926 82.8693 6.01255C83.4986 6.81132 83.8132 8.22006 83.8132 10.2388V16.3384H79.6864V10.6745C79.6864 9.58522 79.584 8.85907 79.3791 8.49599C79.1889 8.13292 78.8376 7.95138 78.3254 7.95138C77.8718 7.95138 77.462 8.19827 77.0962 8.69206C76.745 9.18584 76.5694 9.77402 76.5694 10.4566V16.3384H72.3987V5.01046H76.2401L76.3279 6.53538H76.3718Z" fill="black"/>
<path d="M85.8025 10.6745C85.8025 8.80098 86.2049 7.35593 87.0098 6.33932C87.8293 5.30818 88.9269 4.79261 90.3024 4.79261C91.5463 4.79261 92.5927 5.30092 93.4414 6.31753H93.4853V0H97.656V16.3384H93.8146L93.7268 14.8135H93.6829C92.761 15.9754 91.6341 16.5563 90.3024 16.5563C88.9854 16.5563 87.9025 16.0335 87.0537 14.9878C86.2196 13.9421 85.8025 12.5044 85.8025 10.6745ZM89.7537 10.6745C89.7537 11.5458 89.9293 12.2212 90.2805 12.7004C90.6317 13.1652 91.078 13.3975 91.6195 13.3975C92.1902 13.3975 92.6439 13.1724 92.9805 12.7222C93.3171 12.272 93.4853 11.6257 93.4853 10.7834V10.5655C93.4853 9.73772 93.3171 9.0987 92.9805 8.64849C92.6439 8.18375 92.1902 7.95138 91.6195 7.95138C91.0341 7.95138 90.5732 8.18375 90.2366 8.64849C89.9146 9.0987 89.7537 9.77402 89.7537 10.6745Z" fill="black"/>
</svg>
